<?xml version="1.0" standalone="no"?><!DOCTYPE svg PUBLIC "-//W3C//DTD SVG 1.1//EN" "http://www.w3.org/Graphics/SVG/1.1/DTD/svg11.dtd"><svg t="1648541290618" class="icon" viewBox="0 0 1024 1024" version="1.1" xmlns="http://www.w3.org/2000/svg" p-id="9095" xmlns:xlink="http://www.w3.org/1999/xlink" width="128" height="128"><defs><style type="text/css">@font-face { font-family: "feedback-iconfont"; src: url("//at.alicdn.com/t/font_1031158_u69w8yhxdu.woff2?t=1630033759944") format("woff2"), url("//at.alicdn.com/t/font_1031158_u69w8yhxdu.woff?t=1630033759944") format("woff"), url("//at.alicdn.com/t/font_1031158_u69w8yhxdu.ttf?t=1630033759944") format("truetype"); }
</style></defs><path d="M845.374665 254.0903l42.421524-42.421524a31.157878 31.157878 0 0 1 44.103757 0l5.119839 5.119839a31.157878 31.157878 0 0 1 0 44.030616l-46.444255 46.371114A451.716089 451.716089 0 1 1 493.71486 121.632749V64.875675h-20.99134a31.157878 31.157878 0 1 1 0-62.315755h104.225296a31.157878 31.157878 0 1 1 0 62.315755h-20.9182v56.757074a450.180137 450.180137 0 0 1 289.344049 132.38441zM493.71486 506.571508a104.298436 104.298436 0 0 0 31.157878 203.769596 104.225296 104.225296 0 0 0 31.157878-203.769596V362.996592a31.157878 31.157878 0 0 0-62.315756 0v143.574916z m31.157878 455.153695a389.400333 389.400333 0 1 0 0-778.800666 389.400333 389.400333 0 0 0 0 778.800666z m0-31.157878a358.242455 358.242455 0 1 1 0-716.558051 358.242455 358.242455 0 0 1 0 716.558051z m0-282.541977a41.90954 41.90954 0 1 1 0-83.965361 41.90954 41.90954 0 0 1 0 83.965361z" p-id="9096"></path></svg>