<?xml version="1.0" standalone="no"?><!DOCTYPE svg PUBLIC "-//W3C//DTD SVG 1.1//EN" "http://www.w3.org/Graphics/SVG/1.1/DTD/svg11.dtd"><svg t="1648542069062" class="icon" viewBox="0 0 1024 1024" version="1.1" xmlns="http://www.w3.org/2000/svg" p-id="13701" xmlns:xlink="http://www.w3.org/1999/xlink" width="128" height="128"><defs><style type="text/css">@font-face { font-family: "feedback-iconfont"; src: url("//at.alicdn.com/t/font_1031158_u69w8yhxdu.woff2?t=1630033759944") format("woff2"), url("//at.alicdn.com/t/font_1031158_u69w8yhxdu.woff?t=1630033759944") format("woff"), url("//at.alicdn.com/t/font_1031158_u69w8yhxdu.ttf?t=1630033759944") format("truetype"); }
</style></defs><path d="M778.65619 219.5256h-111.804731V159.533593c0-16.54932-13.448129-29.997448-29.997448-29.997448-16.55221 0-29.994558 13.448129-29.994559 29.997448v59.992007h-239.785944V159.533593c0-16.54932-13.448129-29.997448-29.997448-29.997448-16.55221 0-30.000339 13.448129-30.000339 29.997448v59.992007H195.366367c-55.104668 0-99.957776 44.853108-99.957775 99.960666v474.681659c0 55.101778 44.853108 99.954886 99.957775 99.954886h444.66109c-24.243048-15.57532-45.040971-36.040869-61.02381-59.992007H195.366367c-22.003139 0-39.965769-17.95974-39.965769-39.962879V319.486266c0-22.006029 17.962631-39.962879 39.965769-39.962879h111.709354v44.945594c0 16.55221 13.448129 29.994558 30.000339 29.994558 16.54932 0 29.997448-13.442348 29.997448-29.994558V279.523387h239.875541v44.945594c0 16.55221 13.451019 29.994558 29.997448 29.994558 16.55221 0 29.994558-13.442348 29.994559-29.994558V279.523387h111.715134c22.003139 0 39.965769 17.95685 39.965769 39.962879v201.088975c21.823946 7.274649 42.043827 18.055117 59.992007 31.676659v-232.765634c0-55.107559-44.853108-99.960666-99.957776-99.960666z" p-id="13702"></path><path d="M327.766706 414.455546H231.756952c-12.130195 0-22.003139 9.878724-22.003139 22.008919v82.370872c0 12.130195 9.872944 22.006029 22.003139 22.006029h96.009754c12.130195 0 22.000248-9.875834 22.000249-22.006029v-82.370872c0-12.130195-9.870054-22.008919-22.000249-22.008919z m207.248005 0h-96.006865c-12.130195 0-22.003139 9.878724-22.003138 22.008919v82.370872c0 12.130195 9.872944 22.006029 22.003138 22.006029h96.006865c12.130195 0 22.003139-9.875834 22.003138-22.006029v-82.370872c0-12.130195-9.872944-22.008919-22.003138-22.008919z m207.343381 0h-96.099351c-12.133085 0-22.003139 9.878724-22.003138 22.008919v82.370872c0 11.21689 8.442292 20.508902 19.309466 21.841287 31.734462-19.506001 69.084595-30.763353 109.067705-30.763353 3.939351 0 7.846909 0.118498 11.731347 0.332374v-73.78118c0-12.130195-9.968321-22.008919-22.006029-22.008919z m-414.591386 209.698899H231.756952c-12.130195 0-22.003139 9.870054-22.003139 22.003139v82.373762c0 12.130195 9.872944 22.003139 22.003139 22.003139h96.009754c12.130195 0 22.000248-9.872944 22.000249-22.003139v-82.373762c0-12.133085-9.870054-22.003139-22.000249-22.003139z m207.248005 0h-96.006865c-12.130195 0-22.003139 9.870054-22.003138 22.003139v82.373762c0 12.130195 9.872944 22.003139 22.003138 22.003139h96.006865c4.023167 0 7.797776-1.086717 11.046367-2.982693-1.320824-9.494327-2.023144-19.188078-2.023144-29.04657 0-25.517629 4.589647-49.960102 12.977025-72.558623-0.112718-12.034818-9.939419-21.792154-22.000248-21.792154zM752.635665 542.549478c-97.454857 0-175.958634 78.503776-175.958634 175.958634 0 97.451967 79.405521 175.955744 175.958634 175.955743 97.451967 0 175.955744-78.503776 175.955743-175.955743 0-97.454857-79.408411-175.958634-175.955743-175.958634z m114.596669 229.196229c-2.708123 5.413356-7.219735 8.121479-12.63309 8.121479-1.806379 0-3.609867 0-5.416247-0.901744l-103.767067-46.922495c-4.511612-1.806379-8.121479-7.219735-8.121479-12.633091v-97.454857c0-7.216844 6.3151-13.534835 13.534835-13.534835 7.219735 0 13.534835 6.31799 13.534835 13.534835v89.333378l95.648478 43.312628c7.219735 2.708123 9.927858 9.924968 7.219735 17.144702z" p-id="13703"></path></svg>