<?xml version="1.0" standalone="no"?><!DOCTYPE svg PUBLIC "-//W3C//DTD SVG 1.1//EN" "http://www.w3.org/Graphics/SVG/1.1/DTD/svg11.dtd"><svg t="1648542007161" class="icon" viewBox="0 0 1024 1024" version="1.1" xmlns="http://www.w3.org/2000/svg" p-id="13521" xmlns:xlink="http://www.w3.org/1999/xlink" width="128" height="128"><defs><style type="text/css">@font-face { font-family: "feedback-iconfont"; src: url("//at.alicdn.com/t/font_1031158_u69w8yhxdu.woff2?t=1630033759944") format("woff2"), url("//at.alicdn.com/t/font_1031158_u69w8yhxdu.woff?t=1630033759944") format("woff"), url("//at.alicdn.com/t/font_1031158_u69w8yhxdu.ttf?t=1630033759944") format("truetype"); }
</style></defs><path d="M416.1024 696.32c-35.2768 61.2864-11.52 111.616 37.4784 139.8784 48.9472 28.3136 104.4992 23.808 139.8784-37.4784 35.2768-61.184 258.4064-607.488 239.0016-618.7008C813.056 168.8064 451.4304 635.0848 416.1024 696.32zM512 307.2c22.4256 0 44.2368 1.8944 65.5872 5.5808 22.4256-28.1088 47.5136-59.0848 71.936-88.4736C605.9008 211.712 559.8208 204.8 512 204.8 224.9216 204.8 0 446.9248 0 756.0192c0 18.9952 0.8192 37.9904 2.5088 56.4736 2.5088 28.2112 27.648 48.896 55.5008 46.4896 28.2112-2.6112 48.9984-27.392 46.4896-55.6032C103.1168 787.9168 102.4 771.8912 102.4 756.0192 102.4 504.32 282.3168 307.2 512 307.2zM881.6128 371.2C867.328 409.6 852.224 448.7168 838.912 482.5088 890.88 557.7728 921.6 652.1856 921.6 756.0192c0 16.1792-0.768 32.512-2.2016 48.2816-2.56 28.2112 18.176 53.0944 46.336 55.7056 1.536 0.1024 3.1232 0.2048 4.7104 0.2048 26.1632 0 48.5376-20.0192 50.944-46.592C1023.0784 794.6752 1024 775.3216 1024 756.0192 1024 604.7744 970.0864 469.8112 881.6128 371.2z" p-id="13522"></path></svg>