<?xml version="1.0" standalone="no"?><!DOCTYPE svg PUBLIC "-//W3C//DTD SVG 1.1//EN" "http://www.w3.org/Graphics/SVG/1.1/DTD/svg11.dtd"><svg t="1648540433795" class="icon" viewBox="0 0 1024 1024" version="1.1" xmlns="http://www.w3.org/2000/svg" p-id="5796" xmlns:xlink="http://www.w3.org/1999/xlink" width="128" height="128"><defs><style type="text/css">@font-face { font-family: "feedback-iconfont"; src: url("//at.alicdn.com/t/font_1031158_u69w8yhxdu.woff2?t=1630033759944") format("woff2"), url("//at.alicdn.com/t/font_1031158_u69w8yhxdu.woff?t=1630033759944") format("woff"), url("//at.alicdn.com/t/font_1031158_u69w8yhxdu.ttf?t=1630033759944") format("truetype"); }
</style></defs><path d="M933.376 226.544l-56.56-56.576-90.496 90.528 56.56 56.56 90.496-90.512zM544 32h-80v128h80V32z m179.68 283.296L505.056 534.56l56.512 56.56 162.944-163.136c144.32 184.496 10.528 451.904-220.4 451.904-72.992 0-143.76-27.728-197.808-81.84-213.072-213.28 19.44-571.44 302.08-457.824l60.192-60.256c-135.488-69.952-305.248-48.112-418.8 65.52-227.392 227.616-63.04 614.4 254.304 614.4 337.088 0 493.856-431.824 219.6-644.576zM220.608 260.48l-90.512-90.528-56.56 56.576 90.512 90.512 56.56-56.56z" p-id="5797"></path></svg>