<?xml version="1.0" standalone="no"?><!DOCTYPE svg PUBLIC "-//W3C//DTD SVG 1.1//EN" "http://www.w3.org/Graphics/SVG/1.1/DTD/svg11.dtd"><svg t="1648541111276" class="icon" viewBox="0 0 1024 1024" version="1.1" xmlns="http://www.w3.org/2000/svg" p-id="8256" xmlns:xlink="http://www.w3.org/1999/xlink" width="128" height="128"><defs><style type="text/css">@font-face { font-family: "feedback-iconfont"; src: url("//at.alicdn.com/t/font_1031158_u69w8yhxdu.woff2?t=1630033759944") format("woff2"), url("//at.alicdn.com/t/font_1031158_u69w8yhxdu.woff?t=1630033759944") format("woff"), url("//at.alicdn.com/t/font_1031158_u69w8yhxdu.ttf?t=1630033759944") format("truetype"); }
</style></defs><path d="M875.30629 942.12816a49.062904 49.062904 0 0 1-9.330981 0A43.343915 43.343915 0 0 1 842.798354 933.098178l-93.610817-66.82187-90.299824 65.316872a45.450911 45.450911 0 0 1-51.470899 0L511.699001 865.975309 417.486185 933.098178a44.848912 44.848912 0 0 1-51.4709 0l-91.804821-64.413875L182.706643 933.098178a42.741917 42.741917 0 0 1-30.099941 7.825984A42.139918 42.139918 0 0 1 105.951793 902.998236V182.104644a105.048795 105.048795 0 0 1 108.660788-100.533803h594.473839a105.048795 105.048795 0 0 1 108.961787 100.533803V902.998236a41.537919 41.537919 0 0 1-42.741917 39.129924z m-601.998824-113.777778a18.962963 18.962963 0 0 1 10.53498 3.310994l102.0388 72.841857a8.728983 8.728983 0 0 0 9.932981 0l105.349794-75.550852a18.059965 18.059965 0 0 1 21.069959 0L625.777778 902.998236a8.728983 8.728983 0 0 0 9.631981 0l101.737801-72.540858a18.059965 18.059965 0 0 1 21.069959 0L862.062316 902.998236a6.621987 6.621987 0 0 0 5.11699 1.504997h5.41799c6.320988 0 9.330982-1.805996 9.330981-3.912992V182.104644a69.229865 69.229865 0 0 0-72.841857-64.413874H214.612581a68.928865 68.928865 0 0 0-72.540858 64.413874V902.998236c0 2.106996 2.708995 4.514991 6.621987 4.514992a26.788948 26.788948 0 0 1 6.922986 0 9.330982 9.330982 0 0 0 6.320988-1.504998l101.737801-72.841857a19.865961 19.865961 0 0 1 10.534979-4.815991z m431.633157-104.446796H317.855379a66.52087 66.52087 0 1 1 0-133.04174h387.988242a66.52087 66.52087 0 0 1 0 133.04174z m-387.085244-96.921811a30.099941 30.099941 0 1 0 0 60.199883h387.988242a30.099941 30.099941 0 0 0 0-60.199883z m387.988242-96.92181H317.855379a66.52087 66.52087 0 0 1 0-133.04174h387.988242a66.52087 66.52087 0 0 1 0 133.04174z m-387.988242-97.22281a30.099941 30.099941 0 0 0 0 60.199882h387.988242a30.099941 30.099941 0 0 0 0-60.199882z m387.988242-96.921811H317.855379a66.52087 66.52087 0 0 1-57.490888-33.109935 66.821869 66.821869 0 0 1 57.490888-99.931805h387.988242a66.52087 66.52087 0 1 1 0 133.04174zM317.855379 238.993533a30.099941 30.099941 0 0 0-26.186949 15.35097 30.099941 30.099941 0 0 0 26.186949 46.654909h387.988242a30.099941 30.099941 0 0 0 0-60.199882z" p-id="8257"></path></svg>