<?xml version="1.0" standalone="no"?><!DOCTYPE svg PUBLIC "-//W3C//DTD SVG 1.1//EN" "http://www.w3.org/Graphics/SVG/1.1/DTD/svg11.dtd"><svg t="1648540486856" class="icon" viewBox="0 0 1462 1024" version="1.1" xmlns="http://www.w3.org/2000/svg" p-id="6594" xmlns:xlink="http://www.w3.org/1999/xlink" width="182.75" height="128"><defs><style type="text/css">@font-face { font-family: "feedback-iconfont"; src: url("//at.alicdn.com/t/font_1031158_u69w8yhxdu.woff2?t=1630033759944") format("woff2"), url("//at.alicdn.com/t/font_1031158_u69w8yhxdu.woff?t=1630033759944") format("woff"), url("//at.alicdn.com/t/font_1031158_u69w8yhxdu.ttf?t=1630033759944") format("truetype"); }
</style></defs><path d="M701.586286 507.026286a219.428571 219.428571 0 1 1 438.857143 0 219.428571 219.428571 0 0 1-438.857143 0zM1316.571429 585.142857a292.571429 292.571429 0 0 1-292.571429 292.571429H438.857143a292.571429 292.571429 0 0 1-292.571429-292.571429V438.857143a292.571429 292.571429 0 0 1 292.571429-292.571429h585.142857a292.571429 292.571429 0 0 1 292.571429 292.571429v146.285714z m146.285714-146.285714a438.857143 438.857143 0 0 0-438.857143-438.857143H438.857143a438.857143 438.857143 0 0 0-438.857143 438.857143v146.285714a438.857143 438.857143 0 0 0 438.857143 438.857143h585.142857a438.857143 438.857143 0 0 0 438.857143-438.857143V438.857143z" fill="#000000" p-id="6595"></path></svg>